<svg width="349" height="249" viewBox="0 0 349 249" fill="none" xmlns="http://www.w3.org/2000/svg">
<path d="M349 -3.05176e-05H0V249H349V-3.05176e-05Z" fill="#3F4040"/>
<path d="M59.4907 164.174V94.3555H67.9452V156.674H100.4V164.174H59.4907ZM159.309 94.3555H167.763V140.583C167.763 145.356 166.638 149.617 164.388 153.367C162.161 157.094 159.013 160.037 154.945 162.196C150.877 164.333 146.104 165.401 140.627 165.401C135.15 165.401 130.377 164.333 126.309 162.196C122.241 160.037 119.082 157.094 116.832 153.367C114.604 149.617 113.491 145.356 113.491 140.583V94.3555H121.945V139.901C121.945 143.31 122.695 146.344 124.195 149.003C125.695 151.64 127.832 153.719 130.604 155.242C133.4 156.742 136.741 157.492 140.627 157.492C144.513 157.492 147.854 156.742 150.65 155.242C153.445 153.719 155.582 151.64 157.059 149.003C158.559 146.344 159.309 143.31 159.309 139.901V94.3555ZM222.829 111.81C222.42 108.356 220.761 105.674 217.851 103.765C214.942 101.856 211.374 100.901 207.147 100.901C204.056 100.901 201.351 101.401 199.033 102.401C196.738 103.401 194.942 104.776 193.647 106.526C192.374 108.276 191.738 110.265 191.738 112.492C191.738 114.356 192.181 115.958 193.067 117.299C193.976 118.617 195.136 119.719 196.545 120.606C197.954 121.469 199.431 122.185 200.976 122.753C202.522 123.299 203.942 123.742 205.238 124.083L212.329 125.992C214.147 126.469 216.17 127.128 218.397 127.969C220.647 128.81 222.795 129.958 224.84 131.412C226.908 132.844 228.613 134.685 229.954 136.935C231.295 139.185 231.965 141.946 231.965 145.219C231.965 148.992 230.976 152.401 228.999 155.446C227.045 158.492 224.181 160.912 220.408 162.708C216.658 164.503 212.101 165.401 206.738 165.401C201.738 165.401 197.408 164.594 193.749 162.981C190.113 161.367 187.249 159.117 185.158 156.231C183.09 153.344 181.92 149.992 181.647 146.174H190.374C190.601 148.81 191.488 150.992 193.033 152.719C194.601 154.424 196.579 155.696 198.965 156.537C201.374 157.356 203.965 157.765 206.738 157.765C209.965 157.765 212.863 157.242 215.431 156.196C217.999 155.128 220.033 153.651 221.533 151.765C223.033 149.856 223.783 147.628 223.783 145.083C223.783 142.765 223.136 140.878 221.84 139.424C220.545 137.969 218.84 136.787 216.726 135.878C214.613 134.969 212.329 134.174 209.874 133.492L201.283 131.037C195.829 129.469 191.511 127.231 188.329 124.321C185.147 121.412 183.556 117.606 183.556 112.901C183.556 108.992 184.613 105.583 186.726 102.674C188.863 99.7419 191.726 97.4692 195.317 95.8555C198.931 94.2192 202.965 93.401 207.42 93.401C211.92 93.401 215.92 94.2078 219.42 95.8214C222.92 97.4123 225.692 99.5942 227.738 102.367C229.806 105.14 230.897 108.287 231.011 111.81H222.829ZM284.047 111.81C283.638 108.356 281.979 105.674 279.07 103.765C276.161 101.856 272.593 100.901 268.366 100.901C265.275 100.901 262.57 101.401 260.252 102.401C257.957 103.401 256.161 104.776 254.866 106.526C253.593 108.276 252.957 110.265 252.957 112.492C252.957 114.356 253.4 115.958 254.286 117.299C255.195 118.617 256.354 119.719 257.763 120.606C259.172 121.469 260.65 122.185 262.195 122.753C263.741 123.299 265.161 123.742 266.457 124.083L273.547 125.992C275.366 126.469 277.388 127.128 279.616 127.969C281.866 128.81 284.013 129.958 286.059 131.412C288.127 132.844 289.832 134.685 291.173 136.935C292.513 139.185 293.184 141.946 293.184 145.219C293.184 148.992 292.195 152.401 290.218 155.446C288.263 158.492 285.4 160.912 281.627 162.708C277.877 164.503 273.32 165.401 267.957 165.401C262.957 165.401 258.627 164.594 254.968 162.981C251.332 161.367 248.468 159.117 246.377 156.231C244.309 153.344 243.138 149.992 242.866 146.174H251.593C251.82 148.81 252.707 150.992 254.252 152.719C255.82 154.424 257.797 155.696 260.184 156.537C262.593 157.356 265.184 157.765 267.957 157.765C271.184 157.765 274.082 157.242 276.65 156.196C279.218 155.128 281.252 153.651 282.752 151.765C284.252 149.856 285.002 147.628 285.002 145.083C285.002 142.765 284.354 140.878 283.059 139.424C281.763 137.969 280.059 136.787 277.945 135.878C275.832 134.969 273.547 134.174 271.093 133.492L262.502 131.037C257.047 129.469 252.729 127.231 249.547 124.321C246.366 121.412 244.775 117.606 244.775 112.901C244.775 108.992 245.832 105.583 247.945 102.674C250.082 99.7419 252.945 97.4692 256.536 95.8555C260.15 94.2192 264.184 93.401 268.638 93.401C273.138 93.401 277.138 94.2078 280.638 95.8214C284.138 97.4123 286.911 99.5942 288.957 102.367C291.025 105.14 292.116 108.287 292.229 111.81H284.047Z" fill="#FEFEFE"/>
<path d="M173.522 109.072C175.609 109.072 177.301 107.38 177.301 105.292C177.301 103.205 175.609 101.513 173.522 101.513C171.434 101.513 169.742 103.205 169.742 105.292C169.742 107.38 171.434 109.072 173.522 109.072Z" fill="#FEFEFE"/>
</svg>
