<svg width="287" height="121" viewBox="0 0 287 121" fill="none" xmlns="http://www.w3.org/2000/svg">
<path d="M27.4907 93.1737V23.3555H35.9452V85.6737H68.3998V93.1737H27.4907ZM127.309 23.3555H135.763V69.5828C135.763 74.3555 134.638 78.6169 132.388 82.3669C130.161 86.0942 127.013 89.0373 122.945 91.1964C118.877 93.3328 114.104 94.401 108.627 94.401C103.15 94.401 98.377 93.3328 94.3089 91.1964C90.2407 89.0373 87.0816 86.0942 84.8316 82.3669C82.6043 78.6169 81.4907 74.3555 81.4907 69.5828V23.3555H89.9452V68.901C89.9452 72.3101 90.6952 75.3442 92.1952 78.0033C93.6952 80.6396 95.8316 82.7192 98.6043 84.2419C101.4 85.7419 104.741 86.4919 108.627 86.4919C112.513 86.4919 115.854 85.7419 118.65 84.2419C121.445 82.7192 123.582 80.6396 125.059 78.0033C126.559 75.3442 127.309 72.3101 127.309 68.901V23.3555ZM190.829 40.8101C190.42 37.3555 188.761 34.6737 185.851 32.7646C182.942 30.8555 179.374 29.901 175.147 29.901C172.056 29.901 169.351 30.401 167.033 31.401C164.738 32.401 162.942 33.776 161.647 35.526C160.374 37.276 159.738 39.2646 159.738 41.4919C159.738 43.3555 160.181 44.9578 161.067 46.2987C161.976 47.6169 163.136 48.7192 164.545 49.6055C165.954 50.4692 167.431 51.1851 168.976 51.7532C170.522 52.2987 171.942 52.7419 173.238 53.0828L180.329 54.9919C182.147 55.4692 184.17 56.1283 186.397 56.9692C188.647 57.8101 190.795 58.9578 192.84 60.4123C194.908 61.8442 196.613 63.6851 197.954 65.9351C199.295 68.1851 199.965 70.9464 199.965 74.2192C199.965 77.9919 198.976 81.401 196.999 84.4464C195.045 87.4919 192.181 89.9123 188.408 91.7078C184.658 93.5033 180.101 94.401 174.738 94.401C169.738 94.401 165.408 93.5942 161.749 91.9805C158.113 90.3669 155.249 88.1169 153.158 85.2305C151.09 82.3442 149.92 78.9919 149.647 75.1737H158.374C158.601 77.8101 159.488 79.9919 161.033 81.7192C162.601 83.4237 164.579 84.6964 166.965 85.5373C169.374 86.3555 171.965 86.7646 174.738 86.7646C177.965 86.7646 180.863 86.2419 183.431 85.1964C185.999 84.1283 188.033 82.651 189.533 80.7646C191.033 78.8555 191.783 76.6283 191.783 74.0828C191.783 71.7646 191.136 69.8783 189.84 68.4237C188.545 66.9692 186.84 65.7873 184.726 64.8783C182.613 63.9692 180.329 63.1737 177.874 62.4919L169.283 60.0373C163.829 58.4692 159.511 56.2305 156.329 53.3214C153.147 50.4123 151.556 46.6055 151.556 41.901C151.556 37.9919 152.613 34.5828 154.726 31.6737C156.863 28.7419 159.726 26.4692 163.317 24.8555C166.931 23.2192 170.965 22.401 175.42 22.401C179.92 22.401 183.92 23.2078 187.42 24.8214C190.92 26.4123 193.692 28.5942 195.738 31.3669C197.806 34.1396 198.897 37.2873 199.011 40.8101H190.829ZM252.047 40.8101C251.638 37.3555 249.979 34.6737 247.07 32.7646C244.161 30.8555 240.593 29.901 236.366 29.901C233.275 29.901 230.57 30.401 228.252 31.401C225.957 32.401 224.161 33.776 222.866 35.526C221.593 37.276 220.957 39.2646 220.957 41.4919C220.957 43.3555 221.4 44.9578 222.286 46.2987C223.195 47.6169 224.354 48.7192 225.763 49.6055C227.172 50.4692 228.65 51.1851 230.195 51.7532C231.741 52.2987 233.161 52.7419 234.457 53.0828L241.547 54.9919C243.366 55.4692 245.388 56.1283 247.616 56.9692C249.866 57.8101 252.013 58.9578 254.059 60.4123C256.127 61.8442 257.832 63.6851 259.173 65.9351C260.513 68.1851 261.184 70.9464 261.184 74.2192C261.184 77.9919 260.195 81.401 258.218 84.4464C256.263 87.4919 253.4 89.9123 249.627 91.7078C245.877 93.5033 241.32 94.401 235.957 94.401C230.957 94.401 226.627 93.5942 222.968 91.9805C219.332 90.3669 216.468 88.1169 214.377 85.2305C212.309 82.3442 211.138 78.9919 210.866 75.1737H219.593C219.82 77.8101 220.707 79.9919 222.252 81.7192C223.82 83.4237 225.797 84.6964 228.184 85.5373C230.593 86.3555 233.184 86.7646 235.957 86.7646C239.184 86.7646 242.082 86.2419 244.65 85.1964C247.218 84.1283 249.252 82.651 250.752 80.7646C252.252 78.8555 253.002 76.6283 253.002 74.0828C253.002 71.7646 252.354 69.8783 251.059 68.4237C249.763 66.9692 248.059 65.7873 245.945 64.8783C243.832 63.9692 241.547 63.1737 239.093 62.4919L230.502 60.0373C225.047 58.4692 220.729 56.2305 217.547 53.3214C214.366 50.4123 212.775 46.6055 212.775 41.901C212.775 37.9919 213.832 34.5828 215.945 31.6737C218.082 28.7419 220.945 26.4692 224.536 24.8555C228.15 23.2192 232.184 22.401 236.638 22.401C241.138 22.401 245.138 23.2078 248.638 24.8214C252.138 26.4123 254.911 28.5942 256.957 31.3669C259.025 34.1396 260.116 37.2873 260.229 40.8101H252.047Z" fill="#3F4040"/>
<path d="M141.522 38.0719C143.609 38.0719 145.301 36.3797 145.301 34.2923C145.301 32.205 143.609 30.5128 141.522 30.5128C139.434 30.5128 137.742 32.205 137.742 34.2923C137.742 36.3797 139.434 38.0719 141.522 38.0719Z" fill="#3F4040"/>
</svg>
