<?xml version="1.0" encoding="UTF-8"?>
<svg width="764px" height="765px" viewBox="0 0 764 765" version="1.1" xmlns="http://www.w3.org/2000/svg" xmlns:xlink="http://www.w3.org/1999/xlink">
    <!-- Generator: Sketch 53.2 (72643) - https://sketchapp.com -->
    <title>mouse</title>
    <desc>Created with Sketch.</desc>
    <g id="Page-1" stroke="none" stroke-width="1" fill="none" fill-rule="evenodd">
        <g id="mouse" transform="translate(0.000000, 32.000000)">
            <path d="M604.333333,700.666667 C604.333333,642.333333 572.666667,642.333333 572.666667,584 C572.666667,525.666667 604.333333,525.666667 604.333333,467.333333 C604.333333,409 572.666667,409.333333 572.666667,351 C572.666667,292.666667 604.333333,292.666667 604.333333,234.333333 C604.333333,176 572.666667,176 572.666667,117.333333 C572.666667,58.6666667 604.333333,59 604.333333,0.666666667 L731.666667,0.666666667 L731.666667,700.666667 L604.333333,700.666667 Z" id="Path" stroke="#3C3C3C" stroke-width="63.6666667"></path>
            <path d="M0,700.666667 L763.333333,700.666667" id="Path" stroke="#3C3C3C" stroke-width="63.6666667"></path>
            <path d="M442.392606,500.618955 C423.203936,486.476587 407.146675,466.062351 395.194597,445.158249 C399.81023,436.034012 402.617315,425.238658 402.617315,412.28471 C402.617315,323.956837 306.797784,277.080322 236.23962,269.487013 C219.095952,267.644642 203.224819,264.753242 189.544873,261.696961 C191.617036,257.953276 192.902351,253.71415 192.902351,249.138888 C192.902351,234.706584 181.161962,223 166.687182,223 C152.471222,223 140.963292,234.309912 140.552694,248.379797 C115.603669,250.089944 65.7831045,272.512229 62.7763124,281.517783 C59.7112058,290.735215 53.6584789,295.079483 81.2899719,318.339716 C81.2899719,318.339716 152.417701,348.532936 169.396011,358.198813 C194.710101,372.625542 172.110432,405.973813 148.604091,411.381446 C125.104142,416.788284 114.258441,440.22694 128.719641,454.647297 C135.950641,461.857475 131.282285,437.541045 137.757592,449.239663 C144.240089,460.932705 148.603292,449.239663 148.603292,449.239663 C148.603292,449.239663 150.041185,426.659665 166.686383,425.807379 C201.940302,424.004835 211.885722,393.356797 230.869093,441.124628 C241.39686,467.626733 236.292343,489.804484 252.561293,506.026589 C288.721084,542.082261 254.369043,542.082261 239.907843,542.082261 C225.446642,542.082261 204.37034,552.454659 214.600143,560.100539 C221.831143,565.514545 218.215643,563.712 241.715592,563.712 C265.214743,563.712 297.759833,563.712 297.759833,563.712 C297.759833,563.712 306.797784,549.285271 295.952083,536.668255 C285.106383,524.051239 294.608453,510.370061 299.567583,502.420704 C304.195998,495.012986 350.77811,491.361698 379.7077,465.242723 C387.375659,476.981964 395.817683,487.222138 404.425864,493.401608 C423.377282,507.015878 439.956976,517.567495 443.354396,526.189919 C450.822647,545.171996 412.563534,553.458285 323.067533,554.699277 C314.936253,554.699277 311.771293,563.711204 319.452033,563.711204 C498.437645,563.712 483.976445,531.266993 442.392606,500.618955 Z" id="Path" fill="#3C3C3C" fill-rule="nonzero" transform="translate(264.500000, 393.500000) scale(-1, 1) translate(-264.500000, -393.500000) "></path>
            <g id="Group" transform="translate(53.000000, 128.000000)" stroke="#FF0000" stroke-width="30">
                <circle id="Oval" cx="217.5" cy="217.5" r="217.5"></circle>
                <path d="M96.5,59.5 L341,392.5" id="Line" stroke-linecap="square"></path>
            </g>
        </g>
    </g>
</svg>