<?xml version="1.0" encoding="UTF-8"?>
<svg width="764px" height="765px" viewBox="0 0 764 765" version="1.1" xmlns="http://www.w3.org/2000/svg" xmlns:xlink="http://www.w3.org/1999/xlink">
    <!-- Generator: Sketch 53.2 (72643) - https://sketchapp.com -->
    <title>thermal</title>
    <desc>Created with Sketch.</desc>
    <g id="Page-1" stroke="none" stroke-width="1" fill="none" fill-rule="evenodd">
        <g id="thermal" transform="translate(0.000000, 32.000000)">
            <path d="M604.333333,700.666667 C604.333333,642.333333 572.666667,642.333333 572.666667,584 C572.666667,525.666667 604.333333,525.666667 604.333333,467.333333 C604.333333,409 572.666667,409.333333 572.666667,351 C572.666667,292.666667 604.333333,292.666667 604.333333,234.333333 C604.333333,176 572.666667,176 572.666667,117.333333 C572.666667,58.6666667 604.333333,59 604.333333,0.666666667 L731.666667,0.666666667 L731.666667,700.666667 L604.333333,700.666667 Z" id="Path" stroke="#3C3C3C" stroke-width="63.6666667"></path>
            <path d="M0,700.666667 L763.333333,700.666667" id="Path" stroke="#3C3C3C" stroke-width="63.6666667"></path>
            <path d="M490.118739,306.809336 L425.12343,342.964201 L352.063634,300.780671 L425.089186,258.614267 L490.221471,294.752005 C493.200708,296.447567 496.762095,297.440927 500.563191,297.440927 L500.563191,297.440927 C500.580313,297.440927 500.597435,297.440927 500.614557,297.440927 C512.428773,297.440927 522,287.866995 522,276.049441 C522,268.034057 517.582511,261.046285 511.059009,257.381131 L510.956276,257.32975 L468.322367,233.677515 L499.826943,215.488757 C506.23059,211.703715 510.442615,204.835832 510.442615,196.991716 C510.442615,185.157035 500.854266,175.583103 489.04005,175.583103 C485.136222,175.583103 481.472103,176.627844 478.321645,178.460421 L478.424378,178.40904 L446.954046,196.580671 L447.724538,147.837541 C447.724538,147.73478 447.724538,147.597765 447.724538,147.477876 C447.724538,135.78021 438.324532,126.274786 426.664414,126.086391 L426.647292,126.086391 C415.072785,126.565943 405.758389,135.643195 404.919408,147.083958 L404.919408,147.152465 L403.737987,221.53455 L330.678191,263.735207 L330.678191,179.419527 L394.543445,141.140927 C400.810116,137.338757 404.953652,130.539382 404.953652,122.780901 C404.953652,110.963346 395.365303,101.372288 383.551087,101.372288 C379.493161,101.372288 375.692065,102.502663 372.455998,104.472255 L372.55873,104.420874 L330.695313,129.511769 L330.695313,93.1171269 C330.695313,81.2995726 321.106964,71.7085141 309.292748,71.7085141 C297.478532,71.7085141 287.890183,81.2995726 287.890183,93.1171269 L287.890183,93.1171269 L287.890183,129.460388 L246.14662,104.386621 C242.97904,102.451282 239.160823,101.286654 235.068652,101.286654 C223.254436,101.286654 213.666087,110.877712 213.666087,122.695266 C213.666087,130.470874 217.809624,137.27025 224.007807,141.021039 L224.110539,141.072419 L287.890183,179.4024 L287.890183,263.752334 L213.820186,220.969362 L213.820186,129.683037 C213.820186,11.4389875 34.0386394,11.4389875 34.0386394,129.683037 L34.0386394,353.154701 C12.9613934,375.282643 0,405.306082 0,438.36098 C0,506.645891 55.3384721,562 123.604094,562 C169.474071,562 209.505429,537.011867 230.839505,499.897896 L231.164824,499.298455 C232.29488,499.726627 233.613278,500.086292 235.000164,500.308941 L235.120018,500.326068 C235.13714,500.326068 235.154262,500.326068 235.171385,500.326068 C239.212189,500.326068 242.996162,499.195694 246.215108,497.226101 L246.129498,497.277482 L287.924427,472.169461 L287.924427,508.546976 C287.924427,520.36453 297.512776,529.955588 309.326992,529.955588 C321.141208,529.955588 330.729557,520.36453 330.729557,508.546976 L330.729557,508.546976 L330.729557,472.152334 L372.55873,497.208974 C375.692065,499.127186 379.493161,500.257561 383.568209,500.257561 C395.382425,500.257561 404.970774,490.666502 404.970774,478.848948 C404.970774,471.090467 400.84436,464.291091 394.663299,460.540302 L394.560567,460.488922 L330.712435,422.261703 L330.712435,337.894642 L403.686621,380.043918 L404.987896,454.563018 C405.193361,466.22643 414.678978,475.611966 426.373339,475.611966 C426.373339,475.611966 426.390462,475.611966 426.390462,475.611966 L426.750025,475.611966 C438.410142,475.406443 447.793027,465.901019 447.793027,454.203353 C447.793027,454.066338 447.793027,453.94645 447.793027,453.809435 L447.793027,453.826561 L446.936924,405.014924 L478.458622,423.220809 C481.506347,424.984878 485.153344,426.029619 489.057172,426.029619 C500.871388,426.029619 510.459737,416.455687 510.459737,404.621006 C510.459737,396.794017 506.247712,389.926134 499.963919,386.209599 L499.861187,386.158218 L468.356611,367.969461 L510.956276,344.282972 C517.531144,340.54931 521.897268,333.578665 521.897268,325.614661 C521.897268,313.797107 512.308919,304.206049 500.494703,304.206049 C496.693607,304.206049 493.13222,305.199408 490.050251,306.929224 L490.152983,306.877844 L490.118739,306.809336 Z M266.453374,300.763544 L213.785942,331.180901 L213.785942,270.346187 L266.453374,300.763544 Z M123.895168,519.131394 C78.984026,519.131394 42.5654213,482.702498 42.5654213,437.778665 C42.5654213,413.715385 53.0098731,392.101249 69.6182635,377.200855 L69.6867517,377.132347 C69.8408502,376.995332 69.9093384,376.789809 70.0634369,376.635667 C71.0736379,375.556673 71.9811067,374.357791 72.751599,373.073274 L72.8029652,372.970513 C73.5392134,372.062788 74.2412176,371.035174 74.8404894,369.973307 L74.8918555,369.870546 C75.2342966,368.928567 75.5253715,367.781065 75.7308361,366.616437 L75.7479581,366.496548 C76.2102536,365.10927 76.5526946,363.499343 76.7067931,361.838034 L76.7067931,361.7524 L76.8266474,361.187212 L76.8266474,129.631657 C76.8095254,129.100723 76.7924033,128.467028 76.7924033,127.833333 C76.7924033,101.80046 97.8867714,80.7001315 123.91229,80.7001315 C149.93781,80.7001315 171.032178,101.80046 171.032178,127.833333 C171.032178,128.467028 171.015056,129.100723 170.997934,129.717291 L170.997934,129.631657 L170.997934,361.187212 L171.117788,361.7524 C171.271886,363.499343 171.614327,365.10927 172.127989,366.633563 L172.076623,366.479421 C172.299209,367.781065 172.590284,368.91144 172.96697,370.007561 L172.915603,369.853419 C173.583363,371.035174 174.268245,372.045661 175.038738,373.004767 L175.004494,372.970513 C175.826352,374.357791 176.733821,375.556673 177.744022,376.652794 L177.7269,376.635667 C177.880998,376.789809 177.932365,376.995332 178.103585,377.132347 C194.780464,392.101249 205.224916,413.715385 205.224916,437.778665 C205.224916,482.702498 168.806311,519.131394 123.895168,519.131394 C123.895168,519.131394 123.895168,519.131394 123.895168,519.131394 L123.895168,519.131394 L123.895168,519.131394 Z M247.139699,446.599014 C247.345164,443.636062 248.030046,440.810125 248.030046,437.778665 C247.807459,413.372847 240.564831,390.679717 228.219831,371.617488 L228.510906,372.097041 L287.855939,337.826134 L287.855939,422.107561 L247.139699,446.599014 Z" id="Shape" fill="#FF0000" fill-rule="nonzero"></path>
            <path d="M191,436 C191,472.450793 161.450793,502 125,502 C88.5492065,502 59,472.450793 59,436 L191,436 Z" id="Path" fill="#3C3C3C" fill-rule="nonzero"></path>
        </g>
    </g>
</svg>