<?xml version="1.0" encoding="UTF-8"?>
<svg width="764px" height="765px" viewBox="0 0 764 765" version="1.1" xmlns="http://www.w3.org/2000/svg" xmlns:xlink="http://www.w3.org/1999/xlink">
    <!-- Generator: Sketch 53.2 (72643) - https://sketchapp.com -->
    <title>force</title>
    <desc>Created with Sketch.</desc>
    <g id="Page-1" stroke="none" stroke-width="1" fill="none" fill-rule="evenodd">
        <g id="force" transform="translate(0.000000, 32.000000)">
            <path d="M604.333333,700.666667 C604.333333,642.333333 572.666667,642.333333 572.666667,584 C572.666667,525.666667 604.333333,525.666667 604.333333,467.333333 C604.333333,409 572.666667,409.333333 572.666667,351 C572.666667,292.666667 604.333333,292.666667 604.333333,234.333333 C604.333333,176 572.666667,176 572.666667,117.333333 C572.666667,58.6666667 604.333333,59 604.333333,0.666666667 L731.666667,0.666666667 L731.666667,700.666667 L604.333333,700.666667 Z" id="Path" stroke="#3C3C3C" stroke-width="63.6666667"></path>
            <path d="M0,700.666667 L763.333333,700.666667" id="Path" stroke="#3C3C3C" stroke-width="63.6666667"></path>
            <g id="weight-svgrepo-com" transform="translate(27.000000, 0.000000)" fill-rule="nonzero">
                <path d="M495.853724,578.997992 L432.535749,198.500422 C431.691016,193.396462 427.290548,190 422.127394,190 L73.8744855,190 C68.7113312,190 64.3108631,193.396462 63.4649748,198.500422 L0.145843985,579.171753 C-0.369546976,582.240385 0.495986275,585.626421 2.50554879,588.002323 C4.50586662,590.378224 7.45376425,592 10.5553547,592 L485.445369,592 C488.546959,592 491.494857,590.292502 493.494019,587.9166 C495.503582,585.540699 496.370271,582.066623 495.853724,578.997992 Z M23.0148734,570.841618 L82.8094696,211.158382 L413.191254,211.158382 L472.98585,570.841618 L23.0148734,570.841618 Z" id="Shape" stroke="#FF0000" stroke-width="10" fill="#FF0000"></path>
                <path d="M242.5,0 C195.90691,0 158,37.9080662 158,84.5 C158,131.09309 195.90691,169 242.5,169 C289.09309,169 327,131.09309 327,84.5 C327,37.9080662 289.091934,0 242.5,0 Z M242.5,147.875578 C207.552869,147.875578 179.124422,119.447131 179.124422,84.5 C179.124422,49.552869 207.552869,21.1244217 242.5,21.1244217 C277.447131,21.1244217 305.875578,49.552869 305.875578,84.5 C305.875578,119.447131 277.447131,147.875578 242.5,147.875578 Z" id="Shape" stroke="#FF0000" stroke-width="10" fill="#FF0000"></path>
                <path d="M242.5,53 C225.129412,53 211,67.129412 211,84.5 C211,101.870588 225.129412,116 242.5,116 C259.869438,116 274,101.870588 274,84.5 C274,67.1305617 259.869438,53 242.5,53 Z M242.5,94.9996167 C236.706355,94.9996167 232.000383,90.2936453 232.000383,84.5 C232.000383,78.7063547 236.706355,74.0003833 242.5,74.0003833 C248.293645,74.0003833 252.999617,78.7075045 252.999617,84.5 C252.999617,90.2936453 248.293645,94.9996167 242.5,94.9996167 Z" id="Shape" fill="#FF0000"></path>
                <polygon id="Path" stroke="#3C3C3C" stroke-width="10" fill="#3C3C3C" points="246 342 217.334453 342 167.070534 386.125868 176.363072 342 154.533972 342 132 451 153.81641 451 161.305815 414.81921 174.191929 404.01423 197.168896 451 225.687931 451 193.20731 387.050445"></polygon>
                <path d="M281.977504,369.074312 C288.864632,362.598472 296.58446,359.355347 305.150868,359.355347 C309.630103,359.355347 313.526448,360.126803 316.854937,361.714824 C322.767111,364.602871 325.799529,369.004916 325.947565,376.926514 L347.818677,376.926514 C348.783222,366.364383 345.899996,358.13744 339.159747,351.278763 C332.421812,344.420086 322.290621,341 308.763863,341 C293.163449,341 279.518725,346.203573 267.827377,356.601466 C256.136029,366.99936 248.457836,380.816182 244.790484,398.04962 C241.191367,415.089906 243.016369,428.522735 250.282838,438.342325 C257.213914,448.113337 267.731385,453 281.831782,453 C290.398189,453 298.002364,451.194537 304.644308,447.584768 C308.501331,445.514442 313.117037,442.293293 318.511086,437.238922 L317.930509,450.864904 L332.664683,450.864904 L344.788572,392.772025 L300.461144,392.772025 L296.639974,411.255755 L321.260154,411.255755 C318.701913,416.53682 314.574263,423.6673 308.86795,427.97566 C303.166265,432.282863 296.586773,434.332369 289.13179,434.332369 C281.525302,434.332369 275.326308,431.559983 270.530184,426.119306 C265.746782,420.680942 264.723254,411.389921 267.46654,398.294821 C270.254931,385.296876 275.09269,375.550152 281.977504,369.074312 Z" id="Path" stroke="#3C3C3C" stroke-width="10" fill="#3C3C3C"></path>
            </g>
        </g>
    </g>
</svg>