<svg width="28" height="20" viewBox="0 0 28 20" fill="none" xmlns="http://www.w3.org/2000/svg">
<path d="M14.7933 7.32014L14.877 7.32605C14.9875 7.34231 15.092 7.39406 15.1667 7.50495L19.9267 14.2508L21.14 12.3564C21.2333 12.2178 21.3733 12.1254 21.5133 12.1254C21.6533 12.1254 21.7933 12.1716 21.8867 12.3102L26.1333 18.4092H27.5333C27.8133 18.4092 28 18.5941 28 18.8713C28 19.1485 27.8133 19.3333 27.5333 19.3333H0.466667C0.186667 19.3333 0 19.1485 0 18.8713C0 18.5941 0.186667 18.4092 0.466667 18.4092H1.82L7 9.49175C7.09333 9.35314 7.23333 9.26073 7.42 9.26073C7.60667 9.26073 7.74667 9.35314 7.84 9.49175L10.3133 13.4653L14.42 7.50495C14.5133 7.41255 14.6533 7.32014 14.7933 7.32014ZM14.7467 8.66007L10.5933 14.6205C10.5467 14.7129 10.36 14.8053 10.22 14.8053C10.08 14.8053 9.94 14.7129 9.84667 14.5743L7.42 10.6469L2.89333 18.4554H24.92L21.42 13.4653L20.2067 15.3597C20.1133 15.4984 19.9733 15.5908 19.8333 15.5908C19.6933 15.5908 19.5533 15.5446 19.46 15.4059L14.7467 8.66007ZM23.3333 0.666672C25.0133 0.666672 26.3667 2.00661 26.3667 3.66997C26.3667 5.33334 25.0133 6.67327 23.3333 6.67327C21.6533 6.67327 20.3 5.33334 20.3 3.66997C20.3 2.00661 21.6533 0.666672 23.3333 0.666672ZM23.3333 1.59076C22.1667 1.59076 21.2333 2.51486 21.2333 3.66997C21.2333 4.82509 22.1667 5.74918 23.3333 5.74918C24.5 5.74918 25.4333 4.82509 25.4333 3.66997C25.4333 2.51486 24.5 1.59076 23.3333 1.59076Z" fill="white"/>
</svg>
