<svg width="59" height="10" viewBox="0 0 59 10" fill="none" xmlns="http://www.w3.org/2000/svg">
<path d="M2.016 8.45575H4.944V9.34375H0.924V0.97975H2.016V8.45575ZM12.1037 5.80375C12.1037 6.01175 12.0917 6.23175 12.0677 6.46375H6.81169C6.85169 7.11175 7.07169 7.61975 7.47169 7.98775C7.87969 8.34775 8.37169 8.52775 8.94769 8.52775C9.41969 8.52775 9.81169 8.41975 10.1237 8.20375C10.4437 7.97975 10.6677 7.68375 10.7957 7.31575H11.9717C11.7957 7.94775 11.4437 8.46375 10.9157 8.86375C10.3877 9.25575 9.73169 9.45175 8.94769 9.45175C8.32369 9.45175 7.76369 9.31175 7.26769 9.03175C6.77969 8.75175 6.39569 8.35575 6.11569 7.84375C5.83569 7.32375 5.69569 6.72375 5.69569 6.04375C5.69569 5.36375 5.83169 4.76775 6.10369 4.25575C6.37569 3.74375 6.75569 3.35175 7.24369 3.07975C7.73969 2.79975 8.30769 2.65975 8.94769 2.65975C9.57169 2.65975 10.1237 2.79575 10.6037 3.06775C11.0837 3.33975 11.4517 3.71575 11.7077 4.19575C11.9717 4.66775 12.1037 5.20375 12.1037 5.80375ZM10.9757 5.57575C10.9757 5.15975 10.8837 4.80375 10.6997 4.50775C10.5157 4.20375 10.2637 3.97575 9.94369 3.82375C9.63169 3.66375 9.28369 3.58375 8.89969 3.58375C8.34769 3.58375 7.87569 3.75975 7.48369 4.11175C7.09969 4.46375 6.87969 4.95175 6.82369 5.57575H10.9757ZM13.1371 6.03175C13.1371 5.35975 13.2731 4.77175 13.5451 4.26775C13.8171 3.75575 14.1891 3.35975 14.6611 3.07975C15.1411 2.79975 15.6731 2.65975 16.2571 2.65975C16.8331 2.65975 17.3331 2.78375 17.7571 3.03175C18.1811 3.27975 18.4971 3.59175 18.7051 3.96775V2.76775H19.8091V9.34375H18.7051V8.11975C18.4891 8.50375 18.1651 8.82375 17.7331 9.07975C17.3091 9.32775 16.8131 9.45175 16.2451 9.45175C15.6611 9.45175 15.1331 9.30775 14.6611 9.01975C14.1891 8.73175 13.8171 8.32775 13.5451 7.80775C13.2731 7.28775 13.1371 6.69575 13.1371 6.03175ZM18.7051 6.04375C18.7051 5.54775 18.6051 5.11575 18.4051 4.74775C18.2051 4.37975 17.9331 4.09975 17.5891 3.90775C17.2531 3.70775 16.8811 3.60775 16.4731 3.60775C16.0651 3.60775 15.6931 3.70375 15.3571 3.89575C15.0211 4.08775 14.7531 4.36775 14.5531 4.73575C14.3531 5.10375 14.2531 5.53575 14.2531 6.03175C14.2531 6.53575 14.3531 6.97575 14.5531 7.35175C14.7531 7.71975 15.0211 8.00375 15.3571 8.20375C15.6931 8.39575 16.0651 8.49175 16.4731 8.49175C16.8811 8.49175 17.2531 8.39575 17.5891 8.20375C17.9331 8.00375 18.2051 7.71975 18.4051 7.35175C18.6051 6.97575 18.7051 6.53975 18.7051 6.04375ZM24.9185 2.64775C25.4145 2.64775 25.8625 2.75575 26.2625 2.97175C26.6625 3.17975 26.9745 3.49575 27.1985 3.91975C27.4305 4.34375 27.5465 4.85975 27.5465 5.46775V9.34375H26.4665V5.62375C26.4665 4.96775 26.3025 4.46775 25.9745 4.12375C25.6465 3.77175 25.1985 3.59575 24.6305 3.59575C24.0545 3.59575 23.5945 3.77575 23.2505 4.13575C22.9145 4.49575 22.7465 5.01975 22.7465 5.70775V9.34375H21.6545V0.46375H22.7465V3.70375C22.9625 3.36775 23.2585 3.10775 23.6345 2.92375C24.0185 2.73975 24.4465 2.64775 24.9185 2.64775ZM35.1815 9.42775C34.6295 9.42775 34.1335 9.33175 33.6935 9.13975C33.2615 8.93975 32.9215 8.66775 32.6735 8.32375C32.4255 7.97175 32.2975 7.56775 32.2895 7.11175H33.4535C33.4935 7.50375 33.6535 7.83575 33.9335 8.10775C34.2215 8.37175 34.6375 8.50375 35.1815 8.50375C35.7015 8.50375 36.1095 8.37575 36.4055 8.11975C36.7095 7.85575 36.8615 7.51975 36.8615 7.11175C36.8615 6.79175 36.7735 6.53175 36.5975 6.33175C36.4215 6.13175 36.2015 5.97975 35.9375 5.87575C35.6735 5.77175 35.3175 5.65975 34.8695 5.53975C34.3175 5.39575 33.8735 5.25175 33.5375 5.10775C33.2095 4.96375 32.9255 4.73975 32.6855 4.43575C32.4535 4.12375 32.3375 3.70775 32.3375 3.18775C32.3375 2.73175 32.4535 2.32775 32.6855 1.97575C32.9175 1.62375 33.2415 1.35175 33.6575 1.15975C34.0815 0.96775 34.5655 0.87175 35.1095 0.87175C35.8935 0.87175 36.5335 1.06775 37.0295 1.45975C37.5335 1.85175 37.8175 2.37175 37.8815 3.01975H36.6815C36.6415 2.69975 36.4735 2.41975 36.1775 2.17975C35.8815 1.93175 35.4895 1.80775 35.0015 1.80775C34.5455 1.80775 34.1735 1.92775 33.8855 2.16775C33.5975 2.39975 33.4535 2.72775 33.4535 3.15175C33.4535 3.45575 33.5375 3.70375 33.7055 3.89575C33.8815 4.08775 34.0935 4.23575 34.3415 4.33975C34.5975 4.43575 34.9535 4.54775 35.4095 4.67575C35.9615 4.82775 36.4055 4.97975 36.7415 5.13175C37.0775 5.27575 37.3655 5.50375 37.6055 5.81575C37.8455 6.11975 37.9655 6.53575 37.9655 7.06375C37.9655 7.47175 37.8575 7.85575 37.6415 8.21575C37.4255 8.57575 37.1055 8.86775 36.6815 9.09175C36.2575 9.31575 35.7575 9.42775 35.1815 9.42775ZM40.9044 3.66775V7.54375C40.9044 7.86375 40.9724 8.09175 41.1084 8.22775C41.2444 8.35575 41.4804 8.41975 41.8164 8.41975H42.6204V9.34375H41.6364C41.0284 9.34375 40.5724 9.20375 40.2684 8.92375C39.9644 8.64375 39.8124 8.18375 39.8124 7.54375V3.66775H38.9604V2.76775H39.8124V1.11175H40.9044V2.76775H42.6204V3.66775H40.9044ZM46.8115 9.45175C46.1955 9.45175 45.6355 9.31175 45.1315 9.03175C44.6355 8.75175 44.2435 8.35575 43.9555 7.84375C43.6755 7.32375 43.5355 6.72375 43.5355 6.04375C43.5355 5.37175 43.6795 4.77975 43.9675 4.26775C44.2635 3.74775 44.6635 3.35175 45.1675 3.07975C45.6715 2.79975 46.2355 2.65975 46.8595 2.65975C47.4835 2.65975 48.0475 2.79975 48.5515 3.07975C49.0555 3.35175 49.4515 3.74375 49.7395 4.25575C50.0355 4.76775 50.1835 5.36375 50.1835 6.04375C50.1835 6.72375 50.0315 7.32375 49.7275 7.84375C49.4315 8.35575 49.0275 8.75175 48.5155 9.03175C48.0035 9.31175 47.4355 9.45175 46.8115 9.45175ZM46.8115 8.49175C47.2035 8.49175 47.5715 8.39975 47.9155 8.21575C48.2595 8.03175 48.5355 7.75575 48.7435 7.38775C48.9595 7.01975 49.0675 6.57175 49.0675 6.04375C49.0675 5.51575 48.9635 5.06775 48.7555 4.69975C48.5475 4.33175 48.2755 4.05975 47.9395 3.88375C47.6035 3.69975 47.2395 3.60775 46.8475 3.60775C46.4475 3.60775 46.0795 3.69975 45.7435 3.88375C45.4155 4.05975 45.1515 4.33175 44.9515 4.69975C44.7515 5.06775 44.6515 5.51575 44.6515 6.04375C44.6515 6.57975 44.7475 7.03175 44.9395 7.39975C45.1395 7.76775 45.4035 8.04375 45.7315 8.22775C46.0595 8.40375 46.4195 8.49175 46.8115 8.49175ZM54.2953 3.66775H52.9153V9.34375H51.8233V3.66775H50.9713V2.76775H51.8233V2.29975C51.8233 1.56375 52.0113 1.02775 52.3873 0.69175C52.7713 0.347749 53.3833 0.175749 54.2233 0.175749V1.08775C53.7433 1.08775 53.4033 1.18375 53.2033 1.37575C53.0113 1.55975 52.9153 1.86775 52.9153 2.29975V2.76775H54.2953V3.66775ZM58.2445 3.66775H56.8645V9.34375H55.7725V3.66775H54.9205V2.76775H55.7725V2.29975C55.7725 1.56375 55.9605 1.02775 56.3365 0.69175C56.7205 0.347749 57.3325 0.175749 58.1725 0.175749V1.08775C57.6925 1.08775 57.3525 1.18375 57.1525 1.37575C56.9605 1.55975 56.8645 1.86775 56.8645 2.29975V2.76775H58.2445V3.66775Z" fill="white"/>
</svg>
