<svg width="470" height="424" viewBox="0 0 470 424" fill="none" xmlns="http://www.w3.org/2000/svg">
<path fill-rule="evenodd" clip-rule="evenodd" d="M423.881 113.598C440.95 117.036 457.346 119.592 470.402 114.678V120.384C454.62 125.298 435.977 121.554 422.671 118.872C293.858 92.952 187.337 95.796 96.9815 127.602C50.0567 144.108 21.2951 167.13 11.4647 196.038C7.04869 209.034 6.64551 223.056 6.26151 236.61C5.41671 266.742 4.51435 297.9 13.9799 327.15C19.4135 343.998 28.6103 361.152 42.0887 379.584C49.6343 389.898 59.0807 401.292 71.8679 407.574C83.0423 413.082 95.9639 414.45 109.327 415.476C126.319 416.772 143.541 417.6 160.572 417.942C170.018 418.122 178.447 418.032 186.012 414.99C195.458 411.156 202.428 402.948 208.572 395.712L283.644 307.26C296.777 291.78 311.676 274.23 331.26 263.088C348.617 253.188 375.074 246.798 397.25 258.498C401.59 260.802 405.506 263.664 409.289 266.436C412.802 269.028 416.124 271.476 419.772 273.492C434.748 281.79 452.45 281.592 470.402 277.56V282.996C442.927 288.972 427.932 284.274 416.853 278.136C412.86 275.94 409.231 273.276 405.737 270.702C401.954 267.93 398.383 265.302 394.428 263.214C377.935 254.502 354.319 256.266 334.236 267.696C315.554 278.334 301.615 294.75 288.137 310.626L213.084 399.078C206.825 406.44 199.068 415.584 188.297 419.94C181.154 422.82 173.417 423.396 165.429 423.396C163.778 423.396 162.108 423.378 160.437 423.342C143.311 423 125.954 422.154 108.866 420.858C94.8887 419.778 81.3334 418.338 69.199 412.362C55.279 405.522 45.2951 393.498 37.3463 382.644C23.5223 363.744 14.0759 346.104 8.45028 328.716C0.0428943 302.671 -0.413044 275.508 0.17649 248.859L0.260689 245.309C0.275552 244.718 0.290759 244.127 0.306275 243.536L0.402251 239.997C0.434989 238.819 0.468278 237.642 0.501509 236.466C0.904709 222.534 1.30786 208.134 5.97346 194.4C16.3607 163.836 46.3127 139.662 94.9655 122.544C186.377 90.36 293.974 87.444 423.881 113.598ZM116.297 147.438C164.796 132.516 255.074 104.742 288.06 167.526C296.297 183.222 297.948 202.806 292.706 222.696C288.559 238.464 280.341 254.466 266.882 273.06C253.807 291.132 237.698 309.312 216.194 330.282C199.413 346.644 184.591 359.388 166.793 368.334C152.508 375.516 137.801 379.188 123.9 379.188C117.142 379.188 110.594 378.324 104.373 376.578C85.5575 371.304 68.3351 357.084 57.1031 337.554C46.8119 319.644 42.0887 299.412 38.5367 280.224C32.9687 250.2 29.8007 215.91 48.4055 189.162C64.9367 165.384 95.0807 153.954 116.297 147.438ZM286.332 168.318C254.076 106.956 164.834 134.388 116.892 149.148C95.9447 155.592 66.2231 166.842 50.0183 190.152C31.7591 216.378 34.9271 250.236 40.4375 279.918C43.9703 298.962 48.6359 319.014 58.7927 336.69C69.7943 355.806 86.5943 369.72 104.93 374.85C123.228 379.98 145.442 377.028 165.871 366.75C183.458 357.912 198.165 345.276 214.812 329.022C236.239 308.142 252.271 290.034 265.308 272.052C278.633 253.638 286.754 237.816 290.844 222.264C295.989 202.788 294.377 183.636 286.332 168.318ZM124.917 174.474C164.412 160.902 220.533 147.078 251.733 183.636C258.741 191.826 262.255 200.88 262.255 210.636C262.255 215.37 261.429 220.284 259.778 225.342C254.94 240.192 245.167 254.16 236.239 265.86C225.545 279.846 213.372 293.544 199.01 307.728C188.47 318.15 176.815 328.77 163.029 335.916C152.201 341.55 140.604 344.484 129.756 344.484C125.302 344.484 120.962 343.998 116.873 342.99C102.53 339.48 89.4167 329.418 80.9111 315.378C72.8663 302.004 69.4679 286.56 67.2023 273.186C66.9335 271.692 66.7031 270.18 66.4727 268.668C63.8807 251.298 61.9991 225.918 75.6503 206.244C84.9623 192.834 100.61 182.736 124.917 174.474ZM194.498 162.018C170.997 162.018 146.037 169.128 125.589 176.166C101.685 184.284 86.3255 194.148 77.2631 207.216C63.9575 226.404 65.8199 251.334 68.3735 268.416C68.6039 269.928 68.8343 271.422 69.0839 272.916C71.3303 286.11 74.6903 301.374 82.5815 314.478C90.8375 328.122 103.509 337.878 117.353 341.244C130.946 344.574 147.266 342.072 162.089 334.35C175.644 327.312 187.183 316.8 197.628 306.486C211.932 292.374 224.047 278.73 234.684 264.798C243.516 253.224 253.193 239.418 257.954 224.82C262.812 209.916 260.22 196.434 250.236 184.752C243.017 176.292 234.396 170.604 224.911 167.04C215.446 163.476 205.116 162.018 194.498 162.018ZM133.519 201.528C158.594 191.07 203.1 184.194 218.018 199.026C228.117 208.332 232.246 215.37 226.85 228.024C222.242 238.824 213.142 249.642 205.846 258.336L205.577 258.66C198.357 267.246 190.486 276.408 181.826 285.192C175.26 291.834 167.983 298.674 159.266 303.498C151.778 307.692 143.484 309.924 135.708 309.924C133.557 309.924 131.446 309.744 129.391 309.402C119.446 307.692 110.46 301.806 104.738 293.202C98.9591 284.526 96.9431 274.194 95.8487 266.148C95.7143 265.194 95.5991 264.222 95.4839 263.232C93.6023 246.33 96.0406 233.262 102.914 223.308C110.748 211.932 124.13 205.434 133.519 201.528ZM187.893 192.348C170.21 192.348 149.071 197.01 134.306 203.166C119.734 209.232 110.287 215.946 104.527 224.28C97.9031 233.892 95.5607 246.564 97.4039 263.052C97.4999 264.006 97.6342 264.978 97.7494 265.932C98.8246 273.78 100.783 283.878 106.37 292.248C111.804 300.42 120.329 306.018 129.737 307.638C138.703 309.168 149.109 307.098 158.287 301.95C166.793 297.234 173.954 290.52 180.425 283.968C189.026 275.238 196.879 266.112 204.06 257.544L204.329 257.22C211.567 248.616 220.553 237.906 225.065 227.358C229.596 216.738 227.638 210.42 216.655 200.304L216.636 200.286C210.972 194.634 200.277 192.348 187.893 192.348ZM178.505 215.838C188.508 215.064 194.268 216.522 196.092 220.266C199.308 226.812 189.042 238.167 177.633 248.926L176.525 249.965C176.34 250.138 176.155 250.31 175.97 250.483L174.857 251.514C172.188 253.98 169.749 256.788 167.407 259.506C163.855 263.592 160.188 267.804 155.58 271.044C151.356 274.014 145.826 275.85 140.585 275.85C135.996 275.85 131.637 274.446 128.623 271.116C125.781 268.002 124.399 263.502 124.495 257.724C124.649 250.524 127.164 244.494 130.697 239.58C134.21 234.666 138.722 230.868 142.831 228.078C152.681 221.382 166.025 216.81 178.505 215.838ZM194.345 221.022C192.943 218.124 187.529 216.954 178.658 217.638C143.119 220.392 126.722 242.766 126.415 257.76C126.319 263.07 127.548 267.174 130.082 269.946C135.842 276.264 147.209 274.68 154.428 269.604C158.844 266.508 162.434 262.368 165.909 258.372C168.29 255.618 170.767 252.774 173.513 250.236C174.115 249.681 174.808 249.043 175.567 248.335L176.348 247.605C184.092 240.336 197.314 227.065 194.345 221.022ZM351.093 134.118C365.071 134.388 379.125 136.224 392.719 138.024C400.879 139.086 409.327 140.202 417.641 140.94C438.742 142.848 455.887 141.894 470.402 137.898V139.77C455.753 143.712 438.569 144.648 417.468 142.74C409.097 141.984 400.63 140.868 392.45 139.806C378.914 138.024 364.918 136.188 351.055 135.918C344.758 135.81 337.692 136.26 333.468 140.562C328.169 145.908 330.146 154.368 331.241 157.752C331.97 160.038 332.93 162.306 333.871 164.52C335.426 168.174 337.02 171.954 337.673 175.95C338.421 180.54 337.884 185.202 337.366 189.702C337.116 191.844 336.866 194.076 336.751 196.254C336.521 200.898 337.039 209.376 343.145 213.876C348.597 217.872 355.701 217.188 363.247 216.45C367.356 216.054 371.618 215.622 375.669 216.018C385.519 216.972 393.641 222.66 401.493 228.15C404.066 229.932 406.716 231.804 409.366 233.442C427.145 244.44 449.762 247.788 470.402 243.27V245.124C464.45 246.384 458.364 247.014 452.258 247.014C436.764 247.014 421.289 242.964 408.309 234.936C405.621 233.262 402.934 231.408 400.361 229.59L398.875 228.554C391.673 223.55 384.189 218.66 375.477 217.818C371.618 217.44 367.471 217.854 363.439 218.232C355.855 218.988 348.021 219.744 341.954 215.28C335.177 210.294 334.582 201.168 334.831 196.164C334.946 193.932 335.215 191.682 335.465 189.504C335.964 185.112 336.501 180.576 335.772 176.22C335.157 172.422 333.602 168.75 332.086 165.186C331.145 162.936 330.165 160.632 329.397 158.274C328.207 154.584 326.095 145.386 332.047 139.338C336.809 134.532 344.335 134.01 351.093 134.118ZM470.402 161.334V163.206C448.265 169.002 424.437 167.184 403.106 165.546C394.389 164.88 382.255 164.88 377.628 172.584C374.153 178.398 377.167 185.994 381.775 190.188C386.825 194.796 393.948 197.064 400.898 198.846C425.167 205.038 448.802 206.532 470.402 203.364V205.182C463.068 206.262 455.541 206.784 447.823 206.784C432.559 206.784 416.604 204.714 400.399 200.574C393.199 198.738 385.807 196.38 380.431 191.484C375.19 186.696 371.964 178.362 375.957 171.702C381.122 163.098 394.006 163.044 403.26 163.764C424.61 165.402 448.457 167.22 470.402 161.334ZM114.108 0C113.205 19.098 109.653 37.944 103.509 56.304C101.033 63.666 98.8439 71.946 103.951 77.022C108.022 81.054 114.914 80.982 120.444 80.478C132.54 79.362 144.617 76.662 156.271 74.07C161.206 72.972 166.313 71.82 171.362 70.812C234.805 58.1768 299.324 63.5919 365.186 72.4121L370.007 73.0633C373.223 73.5013 376.442 73.9465 379.665 74.3972L384.501 75.0772C385.307 75.1912 386.114 75.3055 386.921 75.42C412.514 79.056 442.543 83.322 470.402 78.84V80.676C461.877 82.044 453.142 82.584 444.406 82.584C424.457 82.584 404.489 79.74 386.633 77.202C381.803 76.516 376.981 75.8397 372.166 75.1787L367.354 74.523C300.818 65.5292 235.685 59.836 171.766 72.576C166.735 73.584 161.647 74.718 156.713 75.816C144.981 78.426 132.866 81.126 120.636 82.26C115.126 82.764 107.253 82.908 102.549 78.246C96.7318 72.468 99.0551 63.612 101.686 55.764C107.753 37.602 111.266 18.9 112.169 0H114.108ZM151.26 0C151.682 10.44 149.359 20.97 144.482 30.348L144.194 30.906C143.273 32.652 142.332 34.452 142.274 36.288C142.121 40.338 146.306 43.56 150.453 44.334C154.812 45.162 159.42 44.064 163.855 43.002L164.066 42.948C210.07 31.95 257.417 27.648 304.821 30.186C318.991 30.942 333.353 32.328 347.234 33.678C365.685 35.46 384.77 37.314 403.606 37.674C429.084 38.196 451.183 35.802 470.402 30.42V32.292C451.125 37.62 429.007 39.996 403.567 39.474C384.655 39.096 365.532 37.26 347.042 35.46C333.18 34.128 318.838 32.724 304.706 31.968C257.513 29.466 210.358 33.732 164.546 44.694L164.335 44.748C160.86 45.576 157.289 46.422 153.698 46.422C152.489 46.422 151.279 46.332 150.069 46.098C145.154 45.18 140.162 41.238 140.354 36.216C140.431 34.002 141.468 32.022 142.466 30.114L142.773 29.556C147.516 20.412 149.781 10.152 149.359 0H151.26Z" fill="#575445" fill-opacity="0.09"/>
</svg>
