<svg width="16" height="17" viewBox="0 0 16 17" fill="none" xmlns="http://www.w3.org/2000/svg">
<path d="M13.822 14.6772C15.2461 14.6772 16 13.9233 16 12.5V5.66947C16 4.24617 15.2461 3.48578 13.822 3.48578H12.1788C11.6826 3.48578 11.5087 3.4013 11.1865 3.06984L10.6774 2.53692C10.3359 2.17947 9.98792 2.0105 9.33709 2.0105H6.63713C5.98631 2.0105 5.63834 2.17947 5.29682 2.53692L4.78776 3.06984C4.46557 3.4013 4.29158 3.48578 3.78897 3.48578H2.18445C0.760371 3.48578 0 4.24617 0 5.66947V12.5C0 13.9233 0.760371 14.6772 2.18445 14.6772H13.822ZM8.00322 12.565C6.08941 12.565 4.54934 11.0182 4.54934 9.07497C4.54934 7.13826 6.08941 5.58498 8.00322 5.58498C9.91704 5.58498 11.4507 7.13826 11.4507 9.07497C11.4507 11.0182 9.91704 12.565 8.00322 12.565ZM12.7394 7.57369C12.2561 7.57369 11.8566 7.18375 11.8566 6.68982C11.8566 6.21539 12.2626 5.80595 12.7394 5.80595C13.2098 5.80595 13.6158 6.21539 13.6158 6.68982C13.6158 7.17725 13.2163 7.56719 12.7394 7.57369ZM8.00322 11.2717C9.20822 11.2717 10.1748 10.2968 10.1748 9.07497C10.1748 7.85965 9.20822 6.87829 8.00322 6.87829C6.79823 6.87829 5.83166 7.85965 5.83166 9.07497C5.83166 10.2968 6.80467 11.2717 8.00322 11.2717Z" fill="white"/>
</svg>
