<svg width="81" height="13" viewBox="0 0 81 13" fill="none" xmlns="http://www.w3.org/2000/svg">
<path d="M5.66 12L3.17 7.725H1.52V12H0.155V1.545H3.53C4.32 1.545 4.985 1.68 5.525 1.95C6.075 2.22 6.485 2.585 6.755 3.045C7.025 3.505 7.16 4.03 7.16 4.62C7.16 5.34 6.95 5.975 6.53 6.525C6.12 7.075 5.5 7.44 4.67 7.62L7.295 12H5.66ZM1.52 6.63H3.53C4.27 6.63 4.825 6.45 5.195 6.09C5.565 5.72 5.75 5.23 5.75 4.62C5.75 4 5.565 3.52 5.195 3.18C4.835 2.84 4.28 2.67 3.53 2.67H1.52V6.63ZM16.781 7.575C16.781 7.835 16.766 8.11 16.736 8.4H10.166C10.216 9.21 10.491 9.845 10.991 10.305C11.501 10.755 12.116 10.98 12.836 10.98C13.426 10.98 13.916 10.845 14.306 10.575C14.706 10.295 14.986 9.925 15.146 9.465H16.616C16.396 10.255 15.956 10.9 15.296 11.4C14.636 11.89 13.816 12.135 12.836 12.135C12.056 12.135 11.356 11.96 10.736 11.61C10.126 11.26 9.64598 10.765 9.29598 10.125C8.94598 9.475 8.77098 8.725 8.77098 7.875C8.77098 7.025 8.94098 6.28 9.28098 5.64C9.62098 5 10.096 4.51 10.706 4.17C11.326 3.82 12.036 3.645 12.836 3.645C13.616 3.645 14.306 3.815 14.906 4.155C15.506 4.495 15.966 4.965 16.286 5.565C16.616 6.155 16.781 6.825 16.781 7.575ZM15.371 7.29C15.371 6.77 15.256 6.325 15.026 5.955C14.796 5.575 14.481 5.29 14.081 5.1C13.691 4.9 13.256 4.8 12.776 4.8C12.086 4.8 11.496 5.02 11.006 5.46C10.526 5.9 10.251 6.51 10.181 7.29H15.371ZM18.0727 7.86C18.0727 7.02 18.2427 6.285 18.5827 5.655C18.9227 5.015 19.3877 4.52 19.9777 4.17C20.5777 3.82 21.2427 3.645 21.9727 3.645C22.6927 3.645 23.3177 3.8 23.8477 4.11C24.3777 4.42 24.7727 4.81 25.0327 5.28V3.78H26.4127V12H25.0327V10.47C24.7627 10.95 24.3577 11.35 23.8177 11.67C23.2877 11.98 22.6677 12.135 21.9577 12.135C21.2277 12.135 20.5677 11.955 19.9777 11.595C19.3877 11.235 18.9227 10.73 18.5827 10.08C18.2427 9.43 18.0727 8.69 18.0727 7.86ZM25.0327 7.875C25.0327 7.255 24.9077 6.715 24.6577 6.255C24.4077 5.795 24.0677 5.445 23.6377 5.205C23.2177 4.955 22.7527 4.83 22.2427 4.83C21.7327 4.83 21.2677 4.95 20.8477 5.19C20.4277 5.43 20.0927 5.78 19.8427 6.24C19.5927 6.7 19.4677 7.24 19.4677 7.86C19.4677 8.49 19.5927 9.04 19.8427 9.51C20.0927 9.97 20.4277 10.325 20.8477 10.575C21.2677 10.815 21.7327 10.935 22.2427 10.935C22.7527 10.935 23.2177 10.815 23.6377 10.575C24.0677 10.325 24.4077 9.97 24.6577 9.51C24.9077 9.04 25.0327 8.495 25.0327 7.875ZM28.2095 7.86C28.2095 7.02 28.3795 6.285 28.7195 5.655C29.0595 5.015 29.5245 4.52 30.1145 4.17C30.7145 3.82 31.3845 3.645 32.1245 3.645C32.7645 3.645 33.3595 3.795 33.9095 4.095C34.4595 4.385 34.8795 4.77 35.1695 5.25V0.9H36.5495V12H35.1695V10.455C34.8995 10.945 34.4995 11.35 33.9695 11.67C33.4395 11.98 32.8195 12.135 32.1095 12.135C31.3795 12.135 30.7145 11.955 30.1145 11.595C29.5245 11.235 29.0595 10.73 28.7195 10.08C28.3795 9.43 28.2095 8.69 28.2095 7.86ZM35.1695 7.875C35.1695 7.255 35.0445 6.715 34.7945 6.255C34.5445 5.795 34.2045 5.445 33.7745 5.205C33.3545 4.955 32.8895 4.83 32.3795 4.83C31.8695 4.83 31.4045 4.95 30.9845 5.19C30.5645 5.43 30.2295 5.78 29.9795 6.24C29.7295 6.7 29.6045 7.24 29.6045 7.86C29.6045 8.49 29.7295 9.04 29.9795 9.51C30.2295 9.97 30.5645 10.325 30.9845 10.575C31.4045 10.815 31.8695 10.935 32.3795 10.935C32.8895 10.935 33.3545 10.815 33.7745 10.575C34.2045 10.325 34.5445 9.97 34.7945 9.51C35.0445 9.04 35.1695 8.495 35.1695 7.875ZM52.7402 3.63C53.3802 3.63 53.9502 3.765 54.4502 4.035C54.9502 4.295 55.3452 4.69 55.6352 5.22C55.9252 5.75 56.0702 6.395 56.0702 7.155V12H54.7202V7.35C54.7202 6.53 54.5152 5.905 54.1052 5.475C53.7052 5.035 53.1602 4.815 52.4702 4.815C51.7602 4.815 51.1952 5.045 50.7752 5.505C50.3552 5.955 50.1452 6.61 50.1452 7.47V12H48.7952V7.35C48.7952 6.53 48.5902 5.905 48.1802 5.475C47.7802 5.035 47.2352 4.815 46.5452 4.815C45.8352 4.815 45.2702 5.045 44.8502 5.505C44.4302 5.955 44.2202 6.61 44.2202 7.47V12H42.8552V3.78H44.2202V4.965C44.4902 4.535 44.8502 4.205 45.3002 3.975C45.7602 3.745 46.2652 3.63 46.8152 3.63C47.5052 3.63 48.1152 3.785 48.6452 4.095C49.1752 4.405 49.5702 4.86 49.8302 5.46C50.0602 4.88 50.4402 4.43 50.9702 4.11C51.5002 3.79 52.0902 3.63 52.7402 3.63ZM61.8943 12.135C61.1243 12.135 60.4243 11.96 59.7943 11.61C59.1743 11.26 58.6843 10.765 58.3243 10.125C57.9743 9.475 57.7993 8.725 57.7993 7.875C57.7993 7.035 57.9793 6.295 58.3393 5.655C58.7093 5.005 59.2093 4.51 59.8393 4.17C60.4693 3.82 61.1743 3.645 61.9543 3.645C62.7343 3.645 63.4393 3.82 64.0693 4.17C64.6993 4.51 65.1943 5 65.5543 5.64C65.9243 6.28 66.1093 7.025 66.1093 7.875C66.1093 8.725 65.9193 9.475 65.5393 10.125C65.1693 10.765 64.6643 11.26 64.0243 11.61C63.3843 11.96 62.6743 12.135 61.8943 12.135ZM61.8943 10.935C62.3843 10.935 62.8443 10.82 63.2743 10.59C63.7043 10.36 64.0493 10.015 64.3093 9.555C64.5793 9.095 64.7143 8.535 64.7143 7.875C64.7143 7.215 64.5843 6.655 64.3243 6.195C64.0643 5.735 63.7243 5.395 63.3043 5.175C62.8843 4.945 62.4293 4.83 61.9393 4.83C61.4393 4.83 60.9793 4.945 60.5593 5.175C60.1493 5.395 59.8193 5.735 59.5693 6.195C59.3193 6.655 59.1943 7.215 59.1943 7.875C59.1943 8.545 59.3143 9.11 59.5543 9.57C59.8043 10.03 60.1343 10.375 60.5443 10.605C60.9543 10.825 61.4043 10.935 61.8943 10.935ZM69.269 5.115C69.509 4.645 69.849 4.28 70.289 4.02C70.739 3.76 71.284 3.63 71.924 3.63V5.04H71.564C70.034 5.04 69.269 5.87 69.269 7.53V12H67.904V3.78H69.269V5.115ZM80.9997 7.575C80.9997 7.835 80.9847 8.11 80.9547 8.4H74.3847C74.4347 9.21 74.7097 9.845 75.2097 10.305C75.7197 10.755 76.3347 10.98 77.0547 10.98C77.6447 10.98 78.1347 10.845 78.5247 10.575C78.9247 10.295 79.2047 9.925 79.3647 9.465H80.8347C80.6147 10.255 80.1747 10.9 79.5147 11.4C78.8547 11.89 78.0347 12.135 77.0547 12.135C76.2747 12.135 75.5747 11.96 74.9547 11.61C74.3447 11.26 73.8647 10.765 73.5147 10.125C73.1647 9.475 72.9897 8.725 72.9897 7.875C72.9897 7.025 73.1597 6.28 73.4997 5.64C73.8397 5 74.3147 4.51 74.9247 4.17C75.5447 3.82 76.2547 3.645 77.0547 3.645C77.8347 3.645 78.5247 3.815 79.1247 4.155C79.7247 4.495 80.1847 4.965 80.5047 5.565C80.8347 6.155 80.9997 6.825 80.9997 7.575ZM79.5897 7.29C79.5897 6.77 79.4747 6.325 79.2447 5.955C79.0147 5.575 78.6997 5.29 78.2997 5.1C77.9097 4.9 77.4747 4.8 76.9947 4.8C76.3047 4.8 75.7147 5.02 75.2247 5.46C74.7447 5.9 74.4697 6.51 74.3997 7.29H79.5897Z" fill="#575445"/>
</svg>
