<?xml version="1.0" encoding="UTF-8"?>
<svg width="764px" height="765px" viewBox="0 0 764 765" version="1.1" xmlns="http://www.w3.org/2000/svg" xmlns:xlink="http://www.w3.org/1999/xlink">
    <!-- Generator: Sketch 53.2 (72643) - https://sketchapp.com -->
    <title>par</title>
    <desc>Created with Sketch.</desc>
    <g id="Page-1" stroke="none" stroke-width="1" fill="none" fill-rule="evenodd">
        <g id="par" transform="translate(0.000000, 32.000000)">
            <path d="M604.333333,700.666667 C604.333333,642.333333 572.666667,642.333333 572.666667,584 C572.666667,525.666667 604.333333,525.666667 604.333333,467.333333 C604.333333,409 572.666667,409.333333 572.666667,351 C572.666667,292.666667 604.333333,292.666667 604.333333,234.333333 C604.333333,176 572.666667,176 572.666667,117.333333 C572.666667,58.6666667 604.333333,59 604.333333,0.666666667 L731.666667,0.666666667 L731.666667,700.666667 L604.333333,700.666667 Z" id="Path" stroke="#3C3C3C" stroke-width="63.6666667"></path>
            <path d="M0,700.666667 L763.333333,700.666667" id="Path" stroke="#3C3C3C" stroke-width="63.6666667"></path>
            <path d="M378.157865,410.590623 C375.219003,398.059186 381.197598,385.132587 392.607875,379.347586 C394.812875,378.198941 450.875,348.000688 450.875,274.524449 C450.875,235.118508 429.4865,207.199019 406.8485,177.649195 C383.3285,146.950726 359,115.196244 359,70.7325595 C359,-13.9151808 401.9975,-58.2306535 403.816625,-60.083307 C414.575006,-70.6858517 431.778264,-70.6319527 442.471084,-59.9622 C453.163903,-49.2924473 453.395794,-31.9488091 442.992125,-20.9923173 C441.43025,-19.3064026 414.125,10.7436378 414.125,70.7325595 C414.125,96.2250722 430.974875,118.234596 450.47075,143.690056 C475.221875,175.963281 506,216.147336 506,274.524449 C506,383.07142 420.887,427.23868 417.267125,429.072807 C413.443925,430.997591 409.229199,431.999708 404.955875,432 C392.184226,431.980048 381.096727,423.12206 378.157865,410.590623 Z" id="Path" fill="#FF0000" fill-rule="nonzero" transform="translate(432.500000, 182.000000) scale(-1, -1) rotate(90.000000) translate(-432.500000, -182.000000) "></path>
            <path d="M375.157865,705.590623 C372.219003,693.059186 378.197598,680.132587 389.607875,674.347586 C391.812875,673.198941 447.875,643.000688 447.875,569.524449 C447.875,530.118508 426.4865,502.199019 403.8485,472.649195 C380.3285,441.950726 356,410.196244 356,365.73256 C356,281.084819 398.9975,236.769347 400.816625,234.916693 C411.575006,224.314148 428.778264,224.368047 439.471084,235.0378 C450.163903,245.707553 450.395794,263.051191 439.992125,274.007683 C438.43025,275.693597 411.125,305.743638 411.125,365.73256 C411.125,391.225072 427.974875,413.234596 447.47075,438.690056 C472.2035,470.963281 503,511.147336 503,569.524449 C503,678.07142 417.887,722.23868 414.267125,724.072807 C410.443925,725.997591 406.229199,726.999708 401.955875,727 C389.184226,726.980048 378.096727,718.12206 375.157865,705.590623 Z" id="Path" fill="#FF0000" fill-rule="nonzero" transform="translate(429.500000, 477.000000) scale(-1, -1) rotate(90.000000) translate(-429.500000, -477.000000) "></path>
            <path d="M376.527539,559.090623 C373.60867,546.559186 379.546594,533.632587 390.87925,527.847586 C393.06925,526.698941 448.75,496.500688 448.75,423.024449 C448.75,383.618508 427.507,355.699019 405.023,326.149195 C381.663,295.450726 357.5,263.696244 357.5,219.23256 C357.5,134.584819 400.205,90.2693465 402.03,88.416693 C412.715195,77.8141483 429.801424,77.8680473 440.421503,88.5378 C451.041582,99.2075527 451.271896,116.551191 440.939,127.507683 C439.3695,129.193597 412.25,159.243638 412.25,219.23256 C412.25,244.725072 428.98525,266.734596 448.36675,292.190056 C472.913,324.463281 503.5,364.647336 503.5,423.024449 C503.5,531.57142 418.966,575.73868 415.37075,577.572807 C411.572646,579.495034 407.387194,580.497007 403.14325,580.5 C390.458483,580.480048 379.446409,571.62206 376.527539,559.090623 Z" id="Path" fill="#FF0000" fill-rule="nonzero" transform="translate(430.500000, 330.500000) scale(-1, -1) rotate(90.000000) translate(-430.500000, -330.500000) "></path>
        </g>
    </g>
</svg>