<?xml version="1.0" encoding="UTF-8"?>
<svg width="764px" height="764px" viewBox="0 0 764 764" version="1.1" xmlns="http://www.w3.org/2000/svg" xmlns:xlink="http://www.w3.org/1999/xlink">
    <!-- Generator: Sketch 53.2 (72643) - https://sketchapp.com -->
    <title>sound-proof-svgrepo-com</title>
    <desc>Created with Sketch.</desc>
    <g id="Page-1" stroke="none" stroke-width="1" fill="none" fill-rule="evenodd">
        <g id="sound-proof-svgrepo-com" transform="translate(0.000000, 31.333333)" stroke-width="63.6666667">
            <path d="M604.333333,700.666667 C604.333333,642.333333 572.666667,642.333333 572.666667,584 C572.666667,525.666667 604.333333,525.666667 604.333333,467.333333 C604.333333,409 572.666667,409.333333 572.666667,351 C572.666667,292.666667 604.333333,292.666667 604.333333,234.333333 C604.333333,176 572.666667,176 572.666667,117.333333 C572.666667,58.6666667 604.333333,59 604.333333,0.666666667 L731.666667,0.666666667 L731.666667,700.666667 L604.333333,700.666667 Z" id="Path" stroke="#3C3C3C"></path>
            <path d="M0,700.666667 L763.333333,700.666667" id="Path" stroke="#3C3C3C"></path>
            <path d="M67.3333333,250.666667 C85.2664034,268.552334 95.3450918,292.838973 95.3450918,318.166667 C95.3450918,343.494361 85.2664034,367.781 67.3333333,385.666667" id="Path" stroke="#FF0000"></path>
            <path d="M181.666667,139 C281.018194,238.435988 281.018194,399.564012 181.666667,499" id="Path" stroke="#FF0000"></path>
            <path d="M292.333333,26.3333333 C369.988675,103.866929 413.625241,209.09815 413.625241,318.833333 C413.625241,428.568517 369.988675,533.799738 292.333333,611.333333" id="Path" stroke="#FF0000"></path>
        </g>
    </g>
</svg>