<?xml version="1.0" encoding="UTF-8"?>
<svg width="80px" height="80px" viewBox="0 0 80 80" version="1.1" xmlns="http://www.w3.org/2000/svg" xmlns:xlink="http://www.w3.org/1999/xlink">
    <!-- Generator: Sketch 53.2 (72643) - https://sketchapp.com -->
    <title>height</title>
    <desc>Created with Sketch.</desc>
    <g id="Page-1" stroke="none" stroke-width="1" fill="none" fill-rule="evenodd">
        <g id="height" fill="#9E8679" fill-rule="nonzero">
            <path d="M78.5185185,0 L1.48148148,0 C0.662222222,0 0,0.7152 0,1.6 L0,78.4 C0,79.2848 0.662222222,80 1.48148148,80 L78.5185185,80 C79.3377778,80 80,79.2848 80,78.4 L80,1.6 C80,0.7152 79.3377778,0 78.5185185,0 L78.5185185,0 Z M2.96296296,16 L77.037037,16 L77.037037,64 L2.96296296,64 L2.96296296,16 L2.96296296,16 Z M77.037037,3.20000001 L77.037037,12.8 L2.96296296,12.8 L2.96296296,3.20000001 L77.037037,3.20000001 L77.037037,3.20000001 Z M2.96296296,76.8 L2.96296296,67.2 L77.037037,67.2 L77.037037,76.8 L2.96296296,76.8 L2.96296296,76.8 Z" id="Shape"></path>
            <path d="M47.8899045,47.9750608 L41.49063,54.7930561 L41.49063,24.3447436 L47.8899045,31.1627389 C48.1805774,31.4724312 48.5621787,31.6280714 48.94378,31.6280714 C49.3253813,31.6280714 49.7069826,31.4724312 49.9976554,31.1627389 C50.5804917,30.5417661 50.5804917,29.5380454 49.9976554,28.9170726 L41.055366,19.3896667 C40.918228,19.2419673 40.7527682,19.124443 40.5694207,19.0450347 C40.205707,18.88463 39.7957837,18.88463 39.4305793,19.0450347 C39.2472318,19.1260311 39.081772,19.2435554 38.944634,19.3896667 L30.0023446,28.9170726 C29.4195083,29.5380454 29.4195083,30.5417661 30.0023446,31.1627389 C30.5851809,31.7837116 31.5272591,31.7837116 32.1100954,31.1627389 L38.50937,24.3447436 L38.50937,54.7930561 L32.1100954,47.9750608 C31.5272591,47.3540881 30.5851809,47.3540881 30.0023446,47.9750608 C29.4195083,48.5960336 29.4195083,49.5997543 30.0023446,50.2207271 L38.944634,59.748133 C39.081772,59.8958324 39.2472318,60.0133567 39.4305793,60.092765 C39.6124362,60.1737614 39.8062181,60.2150538 40,60.2150538 C40.1937819,60.2150538 40.3875638,60.1737614 40.5694207,60.092765 C40.7527682,60.0117686 40.918228,59.8942443 41.055366,59.748133 L49.9976554,50.2207271 C50.5804917,49.5997543 50.5804917,48.5960336 49.9976554,47.9750608 C49.4148191,47.3540881 48.4727409,47.3540881 47.8899045,47.9750608 L47.8899045,47.9750608 Z" id="Shape"></path>
        </g>
    </g>
</svg>