<?xml version="1.0" encoding="UTF-8"?>
<svg width="80px" height="81px" viewBox="0 0 80 81" version="1.1" xmlns="http://www.w3.org/2000/svg" xmlns:xlink="http://www.w3.org/1999/xlink">
    <!-- Generator: Sketch 53.2 (72643) - https://sketchapp.com -->
    <title>width</title>
    <desc>Created with Sketch.</desc>
    <g id="Page-1" stroke="none" stroke-width="1" fill="none" fill-rule="evenodd">
        <g id="width" fill="#9E8679" fill-rule="nonzero">
            <path d="M78.5185185,0 L1.48148148,0 C0.662222222,0 0,0.722973913 0,1.6173913 L0,79.2521739 C0,80.1465914 0.662222222,80.8695652 1.48148148,80.8695652 L78.5185185,80.8695652 C79.3377778,80.8695652 80,80.1465914 80,79.2521739 L80,1.6173913 C80,0.722973913 79.3377778,0 78.5185185,0 L78.5185185,0 Z M2.96296296,16.173913 L77.037037,16.173913 L77.037037,64.6956522 L2.96296296,64.6956522 L2.96296296,16.173913 L2.96296296,16.173913 Z M77.037037,3.23478261 L77.037037,12.9391304 L2.96296296,12.9391304 L2.96296296,3.23478261 L77.037037,3.23478261 L77.037037,3.23478261 Z M2.96296296,77.6347826 L2.96296296,67.9304348 L77.037037,67.9304348 L77.037037,77.6347826 L2.96296296,77.6347826 L2.96296296,77.6347826 Z" id="Shape"></path>
            <path d="M40.919197,57.6969278 L40.919197,22.3007645 L47.8517444,30.226684 C48.16664,30.5867013 48.5800414,30.7676331 48.9934428,30.7676331 C49.4068442,30.7676331 49.8202455,30.5867013 50.1351412,30.226684 C50.7665471,29.5048031 50.7665471,28.3379778 50.1351412,27.6160969 L40.4476611,16.5404875 C40.2990949,16.3687869 40.1198467,16.232165 39.9212202,16.1398529 C39.527197,15.9533824 39.0831135,15.9533824 38.6874755,16.1398529 C38.488849,16.2340112 38.3096007,16.3706332 38.1610347,16.5404875 L28.4735545,27.6160969 C27.8421485,28.3379778 27.8421485,29.5048031 28.4735545,30.226684 C29.1049606,30.9485648 30.1255453,30.9485648 30.7569512,30.226684 L37.6894987,22.3007645 L37.6894987,57.6969278 L30.7569512,49.7710083 C30.1255453,49.0491274 29.1049606,49.0491274 28.4735545,49.7710083 C27.8421485,50.4928891 27.8421485,51.6597144 28.4735545,52.3815953 L38.1610347,63.4572047 C38.3096007,63.6289052 38.488849,63.7655272 38.6874755,63.8578394 C38.8844871,63.9519977 39.0944174,64 39.3043479,64 C39.5142782,64 39.7242087,63.9519977 39.9212202,63.8578394 C40.1198467,63.763681 40.2990949,63.627059 40.4476611,63.4572047 L50.1351412,52.3815953 C50.7665471,51.6597144 50.7665471,50.4928891 50.1351412,49.7710083 C49.5037351,49.0491274 48.4831504,49.0491274 47.8517444,49.7710083 L40.919197,57.6969278 Z" id="Shape" transform="translate(39.304348, 40.000000) scale(-1, 1) rotate(-90.000000) translate(-39.304348, -40.000000) "></path>
        </g>
    </g>
</svg>