<?xml version="1.0" encoding="UTF-8"?>
<svg width="662px" height="800px" viewBox="0 0 662 800" version="1.1" xmlns="http://www.w3.org/2000/svg" xmlns:xlink="http://www.w3.org/1999/xlink">
    <!-- Generator: Sketch 53.2 (72643) - https://sketchapp.com -->
    <title>Shape</title>
    <desc>Created with Sketch.</desc>
    <g id="Page-1" stroke="none" stroke-width="1" fill="none" fill-rule="evenodd">
        <g id="bag" transform="translate(-0.250000, 0.000000)" fill="#FFFFFF" fill-rule="nonzero">
            <path d="M583.423437,226.0875 L505.1625,226.0875 L505.1625,173.914062 C505.1625,78.015625 427.145312,0 331.25,0 C235.354687,0 157.3375,78.015625 157.3375,173.9125 L157.3375,226.085937 L79.0765625,226.085937 C35.9234375,226.085937 0.815625,261.19375 0.815625,304.346875 L0.815625,721.7375 C0.815625,764.890625 35.9234375,799.998437 79.0765625,799.998437 L583.425,799.998437 C626.578125,799.998437 661.685937,764.890625 661.685937,721.7375 L661.685937,304.346875 C661.684375,261.195312 626.576563,226.0875 583.423437,226.0875 Z M209.510938,173.9125 C209.510938,106.785937 264.123438,52.1734375 331.25,52.1734375 C398.376563,52.1734375 452.989063,106.785937 452.989063,173.9125 L452.989063,226.085938 L209.510938,226.085938 L209.510938,173.9125 Z M609.510937,721.739063 C609.510937,736.123438 597.807812,747.826563 583.423437,747.826563 L79.0765625,747.826563 C64.6921875,747.826563 52.9890625,736.123438 52.9890625,721.739063 L52.9890625,304.348437 C52.9890625,289.964063 64.6921875,278.260938 79.0765625,278.260938 L157.3375,278.260938 L157.3375,304.348437 C157.3375,318.754687 169.017187,330.435938 183.425,330.435938 C197.832812,330.435938 209.5125,318.75625 209.5125,304.348437 L209.5125,278.260938 L452.990625,278.260938 L452.990625,304.348437 C452.990625,318.754687 464.670313,330.435938 479.078125,330.435938 C493.485938,330.435938 505.165625,318.75625 505.165625,304.348437 L505.165625,278.260938 L583.426563,278.260938 C597.810938,278.260938 609.514063,289.964063 609.514063,304.348437 L609.514063,721.739063 L609.510937,721.739063 Z" id="Shape"></path>
        </g>
    </g>
</svg>