<svg width="13" height="13" viewBox="0 0 13 13" fill="none" xmlns="http://www.w3.org/2000/svg">
<path fill-rule="evenodd" clip-rule="evenodd" d="M4.61538 7.83077C6.39119 7.83077 7.83077 6.39119 7.83077 4.61538C7.83077 2.83958 6.39119 1.4 4.61538 1.4C2.83958 1.4 1.4 2.83958 1.4 4.61538C1.4 6.39119 2.83958 7.83077 4.61538 7.83077ZM4.61538 9.23077C7.16439 9.23077 9.23077 7.16439 9.23077 4.61538C9.23077 2.06638 7.16439 0 4.61538 0C2.06638 0 0 2.06638 0 4.61538C0 7.16439 2.06638 9.23077 4.61538 9.23077Z" fill="white"/>
<path fill-rule="evenodd" clip-rule="evenodd" d="M11.505 12.4947L8.12036 9.11007L9.11031 8.12012L12.4949 11.5047L11.505 12.4947Z" fill="white"/>
</svg>
