<svg width="82" height="39" viewBox="0 0 82 39" fill="none" xmlns="http://www.w3.org/2000/svg">
<rect x="1.5" y="10.2725" width="70.4091" height="27.2273" stroke="white" stroke-width="3"/>
<path d="M17.3638 31.4169C15.9129 31.4169 14.8823 31.0139 14.272 30.2078C13.6732 29.3903 13.3738 28.2387 13.3738 26.7533V21.7615C13.3738 20.23 13.6732 19.0669 14.272 18.2724C14.8707 17.4778 15.9014 17.0806 17.3638 17.0806C18.7341 17.0806 19.7071 17.426 20.2829 18.1169C20.8586 18.8078 21.1465 19.8039 21.1465 21.1051V22.2797H18.6938V21.0706C18.6938 20.5754 18.6707 20.1897 18.6247 19.9133C18.5786 19.6254 18.4577 19.3951 18.262 19.2224C18.0777 19.0381 17.7841 18.946 17.3811 18.946C16.9665 18.946 16.6556 19.0439 16.4483 19.2397C16.2411 19.4239 16.1029 19.6772 16.0338 19.9997C15.9762 20.3106 15.9474 20.7194 15.9474 21.226V27.2887C15.9474 28.0833 16.0511 28.6591 16.2583 29.016C16.4656 29.3615 16.8398 29.5342 17.3811 29.5342C17.7726 29.5342 18.0604 29.4421 18.2447 29.2578C18.4404 29.0736 18.5614 28.8318 18.6074 28.5324C18.665 28.2215 18.6938 27.8127 18.6938 27.306V26.0451H21.1465V27.1678C21.1465 28.5151 20.8644 29.563 20.3001 30.3115C19.7359 31.0484 18.7571 31.4169 17.3638 31.4169Z" fill="white"/>
<path d="M24.6535 17.236H28.0217C29.4957 17.236 30.5954 17.5181 31.3208 18.0824C32.0463 18.6351 32.409 19.5909 32.409 20.9497C32.409 21.8363 32.2766 22.5618 32.0117 23.126C31.7584 23.6787 31.3151 24.0818 30.6817 24.3351L32.6335 31.2269H30.0772L28.4017 24.8187H27.1926V31.2269H24.6535V17.236ZM28.0045 23.2297C28.7299 23.2297 29.2423 23.0627 29.5417 22.7287C29.8526 22.3948 30.0081 21.8478 30.0081 21.0878C30.0081 20.3509 29.8699 19.8154 29.5935 19.4815C29.3287 19.1475 28.8451 18.9806 28.1426 18.9806H27.1926V23.2297H28.0045Z" fill="white"/>
<path d="M36.1321 17.236H38.6539V31.2269H36.1321V17.236Z" fill="white"/>
<path d="M46.0706 31.4169C44.804 31.4169 43.854 31.06 43.2206 30.346C42.5988 29.6321 42.2591 28.5669 42.2016 27.1506L44.3952 26.7187C44.4297 27.6054 44.5679 28.2848 44.8097 28.7569C45.0631 29.2175 45.4546 29.4478 45.9843 29.4478C46.3758 29.4478 46.6637 29.3327 46.8479 29.1024C47.0437 28.8606 47.1416 28.5381 47.1416 28.1351C47.1416 27.5824 47.0149 27.116 46.7616 26.736C46.5197 26.3445 46.134 25.9184 45.6043 25.4578L43.8425 23.9206C43.3013 23.46 42.8925 22.9648 42.6161 22.4351C42.3513 21.9054 42.2188 21.2721 42.2188 20.5351C42.2188 19.4412 42.5355 18.5948 43.1688 17.996C43.8137 17.3857 44.7003 17.0806 45.8288 17.0806C47.0379 17.0806 47.9016 17.426 48.4197 18.1169C48.9494 18.7963 49.2546 19.7175 49.3352 20.8806L47.1416 21.2606C47.107 20.5006 46.9976 19.9306 46.8134 19.5506C46.6406 19.1591 46.2952 18.9633 45.777 18.9633C45.4085 18.9633 45.1206 19.09 44.9134 19.3433C44.7061 19.5851 44.6025 19.896 44.6025 20.276C44.6025 20.7251 44.6888 21.1051 44.8616 21.416C45.0458 21.7154 45.3394 22.0378 45.7425 22.3833L47.487 23.9206C48.1434 24.4848 48.6558 25.0894 49.0243 25.7342C49.3928 26.3791 49.577 27.1275 49.577 27.9797C49.577 28.6475 49.4273 29.2406 49.1279 29.7587C48.84 30.2769 48.4313 30.6857 47.9016 30.9851C47.3719 31.273 46.7616 31.4169 46.0706 31.4169Z" fill="white"/>
<path d="M52.8094 17.236H56.9203C59.304 17.236 60.4958 18.5603 60.4958 21.2087C60.4958 23.7421 59.2464 25.0087 56.7476 25.0087H55.3485V31.2269H52.8094V17.236ZM56.3331 23.2124C57.024 23.2124 57.4903 23.0684 57.7322 22.7806C57.974 22.4812 58.0949 21.9515 58.0949 21.1915C58.0949 20.6387 58.0546 20.2184 57.974 19.9306C57.8934 19.6312 57.7264 19.4066 57.4731 19.2569C57.2313 19.1072 56.8513 19.0324 56.3331 19.0324H55.3485V23.2124H56.3331Z" fill="white"/>
<path d="M77.7046 33.8181V29.9318H80.2956V2.29541H9.47737V4.88632H6.02283" stroke="white" stroke-width="3"/>
</svg>
